<svg width="184" height="48" viewBox="0 0 184 48" fill="none" xmlns="http://www.w3.org/2000/svg">
<path d="M60.8179 13.1461C59.8216 12.6615 58.7279 12.4077 57.6189 12.4036C54.793 12.4036 52.1423 14.1474 52.1423 17.6801V33.2901C52.1399 33.3705 52.1541 33.4505 52.184 33.5253C52.2138 33.6 52.2587 33.6679 52.3158 33.7248C52.373 33.7817 52.4412 33.8264 52.5163 33.8561C52.5915 33.8858 52.6719 33.8999 52.7527 33.8976H55.2508C55.3319 33.8999 55.4125 33.8858 55.488 33.8561C55.5634 33.8265 55.632 33.7819 55.6895 33.7251C55.7471 33.6683 55.7926 33.6005 55.823 33.5257C55.8535 33.4509 55.8684 33.3707 55.8669 33.2901V21.9102H59.1054C59.1867 21.9118 59.2675 21.8969 59.3429 21.8667C59.4184 21.8364 59.4869 21.7913 59.5444 21.734C59.6019 21.6768 59.6473 21.6086 59.6777 21.5335C59.7081 21.4584 59.723 21.378 59.7214 21.2971V19.8176C59.723 19.7367 59.7081 19.6563 59.6777 19.5812C59.6473 19.5061 59.6019 19.4379 59.5444 19.3807C59.4869 19.3234 59.4184 19.2783 59.3429 19.2481C59.2675 19.2178 59.1867 19.203 59.1054 19.2045H55.8669V17.6351C55.8447 17.3682 55.8819 17.0999 55.9757 16.849C56.0696 16.5981 56.2178 16.3708 56.4099 16.1834C56.602 15.996 56.8332 15.853 57.0871 15.7646C57.341 15.6762 57.6114 15.6445 57.8789 15.6719C58.3951 15.6849 58.903 15.8036 59.371 16.0206C59.4408 16.0657 59.5196 16.0949 59.602 16.1061C59.6844 16.1174 59.7682 16.1104 59.8476 16.0857C59.9269 16.0609 59.9998 16.0191 60.061 15.9631C60.1223 15.9072 60.1704 15.8385 60.2019 15.7619L61.0779 14.0743C61.1643 13.9163 61.1854 13.731 61.1369 13.5578C61.0884 13.3845 60.974 13.2369 60.8179 13.1461V13.1461Z" fill="#131922"/>
<path d="M76.8928 18.552H74.3946C74.3136 18.5504 74.233 18.5653 74.1579 18.5956C74.0828 18.6259 74.0146 18.6711 73.9575 18.7284C73.9004 18.7858 73.8557 18.854 73.8259 18.9291C73.7961 19.0041 73.7819 19.0844 73.7842 19.1651V20.9933C73.2098 20.1318 72.4172 19.4363 71.4864 18.977C70.5556 18.5178 69.5195 18.311 68.4828 18.3776C64.1478 18.4226 61.254 21.5615 61.254 26.1798C61.254 30.8881 64.1874 34.117 68.6015 34.117C69.6173 34.1645 70.6281 33.9483 71.5348 33.4898C72.4414 33.0312 73.2127 32.3459 73.7729 31.5012V33.335C73.7706 33.4155 73.7848 33.4955 73.8146 33.5703C73.8445 33.645 73.8893 33.7129 73.9465 33.7698C74.0037 33.8267 74.0719 33.8714 74.147 33.9011C74.2221 33.9308 74.3025 33.9449 74.3833 33.9426H76.8815C76.9625 33.9449 77.0432 33.9308 77.1186 33.9011C77.194 33.8715 77.2626 33.8269 77.3202 33.7701C77.3778 33.7133 77.4232 33.6455 77.4537 33.5707C77.4842 33.4959 77.4991 33.4157 77.4975 33.335V19.1651C77.5052 19.0837 77.4948 19.0016 77.4673 18.9245C77.4398 18.8474 77.3957 18.7773 77.3381 18.7189C77.2805 18.6605 77.2108 18.6153 77.1339 18.5865C77.057 18.5577 76.9747 18.5459 76.8928 18.552ZM73.6938 26.3767C73.6954 26.8317 73.6518 27.2858 73.5638 27.7323C73.3624 28.6745 72.8363 29.5169 72.0766 30.1137C71.317 30.7106 70.3716 31.0243 69.404 31.0006C66.8155 31.0006 65.0238 29.0824 65.0238 26.2923C65.0238 23.5022 66.8607 21.584 69.404 21.584C70.3734 21.5525 71.3228 21.8633 72.0841 22.4614C72.8454 23.0595 73.3695 23.9064 73.5638 24.8522C73.6711 25.2939 73.7148 25.7484 73.6938 26.2023V26.3767Z" fill="#131922"/>
<path d="M84.2511 22.6528C84.2511 21.6909 85.1272 21.2971 86.3536 21.2971C87.75 21.3528 89.1149 21.7261 90.3438 22.3884C90.4947 22.4687 90.6713 22.4865 90.8353 22.4381C90.9993 22.3896 91.1375 22.2788 91.2199 22.1296L92.0055 20.5152C92.0753 20.3702 92.0872 20.2042 92.039 20.0508C91.9907 19.8974 91.8859 19.7678 91.7455 19.6883C90.1577 18.8309 88.3805 18.3804 86.5741 18.3776C83.4655 18.3776 80.747 19.8627 80.747 23.0015C80.7018 28.4467 88.8065 26.9392 88.8065 29.7518C88.8065 30.7531 87.8457 31.1918 86.5458 31.1918C84.8869 31.156 83.2745 30.6399 81.9056 29.7068C81.8294 29.6573 81.7434 29.6247 81.6534 29.6112C81.5634 29.5978 81.4716 29.6039 81.3841 29.6289C81.2967 29.654 81.2157 29.6976 81.1467 29.7566C81.0777 29.8157 81.0223 29.8889 80.9843 29.9712L80.227 31.4394C80.1662 31.5717 80.1504 31.7202 80.182 31.8623C80.2137 32.0044 80.2909 32.1324 80.4022 32.2269C82.1512 33.4325 84.2318 34.071 86.3593 34.0551C89.6487 34.0551 92.452 32.5306 92.452 29.3918C92.4463 23.9128 84.2511 25.2516 84.2511 22.6528Z" fill="#131922"/>
<path d="M102.739 30.8768C102.714 30.7938 102.673 30.7168 102.617 30.6509C102.56 30.585 102.491 30.5317 102.412 30.4945C102.334 30.4573 102.248 30.437 102.161 30.4351C102.074 30.4331 101.988 30.4495 101.908 30.4831C101.422 30.6886 100.904 30.8067 100.376 30.8318C99.3194 30.8318 98.709 30.0893 98.709 28.4355V21.9102H102.518C102.6 21.9118 102.68 21.897 102.756 21.8667C102.831 21.8364 102.9 21.7913 102.957 21.734C103.015 21.6768 103.06 21.6086 103.091 21.5335C103.121 21.4584 103.136 21.378 103.134 21.2971V19.8176C103.136 19.7367 103.121 19.6563 103.091 19.5812C103.06 19.5061 103.015 19.4379 102.957 19.3807C102.9 19.3234 102.831 19.2783 102.756 19.2481C102.68 19.2178 102.6 19.203 102.518 19.2045H98.709V15.5875C98.7105 15.5065 98.6956 15.4261 98.6652 15.3511C98.6348 15.276 98.5894 15.2078 98.5319 15.1505C98.4744 15.0933 98.4059 15.0482 98.3305 15.0179C98.255 14.9876 98.1742 14.9728 98.0929 14.9743H95.6004C95.5191 14.9728 95.4383 14.9876 95.3629 15.0179C95.2874 15.0482 95.2189 15.0933 95.1614 15.1505C95.1039 15.2078 95.0586 15.276 95.0281 15.3511C94.9977 15.4261 94.9828 15.5065 94.9844 15.5875V29.0599C94.9844 32.435 97.0021 34.1226 99.6302 34.1226C100.794 34.1021 101.936 33.803 102.959 33.2507C103.093 33.1859 103.198 33.0744 103.254 32.9374C103.31 32.8004 103.314 32.6476 103.264 32.5081L102.739 30.8768Z" fill="#131922"/>
<path d="M138.267 18.4226C133.361 18.4226 130.077 21.5615 130.077 26.2248C130.077 30.8881 133.361 34.072 138.267 34.072C143.082 34.072 146.417 30.8881 146.417 26.2248C146.417 21.5615 143.082 18.4226 138.267 18.4226ZM138.267 30.9331C135.684 30.9331 133.887 29.0149 133.887 26.2698C133.887 23.5247 135.684 21.6065 138.267 21.6065C140.85 21.6065 142.602 23.5247 142.602 26.2698C142.602 29.0149 140.805 30.9331 138.267 30.9331Z" fill="#131922"/>
<path d="M157.494 18.4226C156.534 18.4935 155.609 18.8119 154.81 19.3465C154.012 19.8811 153.367 20.6134 152.938 21.4715V19.1201C152.941 19.0395 152.927 18.9592 152.897 18.8841C152.867 18.809 152.822 18.7408 152.765 18.6835C152.708 18.6261 152.64 18.5809 152.565 18.5506C152.49 18.5203 152.409 18.5054 152.328 18.507H149.83C149.749 18.5054 149.668 18.5203 149.593 18.5506C149.518 18.5809 149.45 18.6261 149.393 18.6835C149.336 18.7408 149.291 18.809 149.261 18.8841C149.231 18.9592 149.217 19.0395 149.219 19.1201V33.245C149.217 33.3257 149.231 33.406 149.261 33.4811C149.291 33.5561 149.336 33.6244 149.393 33.6817C149.45 33.739 149.518 33.7842 149.593 33.8146C149.668 33.8449 149.749 33.8597 149.83 33.8582H152.328C152.409 33.8597 152.49 33.8449 152.565 33.8146C152.64 33.7842 152.708 33.739 152.765 33.6817C152.822 33.6244 152.867 33.5561 152.897 33.4811C152.927 33.406 152.941 33.3257 152.938 33.245V26.5285C152.938 23.9128 154.69 22.0846 157.584 22.0284C157.745 22.0255 157.899 21.9605 158.013 21.8472C158.127 21.7339 158.192 21.5811 158.195 21.4208V19.1201C158.204 19.0261 158.193 18.9312 158.161 18.8421C158.129 18.7531 158.078 18.6722 158.011 18.6054C157.944 18.5386 157.863 18.4875 157.773 18.4559C157.684 18.4243 157.588 18.4129 157.494 18.4226V18.4226Z" fill="#131922"/>
<path d="M174.495 32.9863L169.063 24.481L173.749 19.5983C173.835 19.5122 173.894 19.4025 173.917 19.2831C173.941 19.1638 173.928 19.0401 173.881 18.928C173.833 18.8158 173.754 18.7202 173.652 18.6532C173.55 18.5863 173.43 18.551 173.308 18.552H170.725C170.563 18.5557 170.409 18.6177 170.29 18.7264L164.112 24.9141V13.1911C164.114 13.1102 164.099 13.0298 164.068 12.9547C164.038 12.8796 163.993 12.8114 163.935 12.7542C163.878 12.6969 163.809 12.6518 163.734 12.6215C163.658 12.5913 163.577 12.5765 163.496 12.578H161.004C160.922 12.5765 160.842 12.5913 160.766 12.6215C160.691 12.6518 160.622 12.6969 160.565 12.7542C160.507 12.8114 160.462 12.8796 160.431 12.9547C160.401 13.0298 160.386 13.1102 160.388 13.1911V33.2901C160.386 33.3707 160.401 33.4509 160.431 33.5257C160.462 33.6005 160.507 33.6683 160.565 33.7251C160.622 33.7819 160.691 33.8265 160.766 33.8561C160.842 33.8858 160.923 33.8999 161.004 33.8976H163.496C163.577 33.8999 163.658 33.8858 163.733 33.8561C163.809 33.8265 163.877 33.7819 163.935 33.7251C163.992 33.6683 164.038 33.6005 164.068 33.5257C164.099 33.4509 164.114 33.3707 164.112 33.2901V29.6674L166.475 27.1867L170.465 33.6388C170.522 33.7276 170.599 33.8015 170.691 33.8544C170.782 33.9072 170.885 33.9375 170.991 33.9426H173.969C174.08 33.9398 174.188 33.9081 174.283 33.8507C174.378 33.7932 174.455 33.712 174.509 33.6151C174.562 33.5183 174.589 33.4092 174.586 33.2988C174.584 33.1885 174.552 33.0807 174.495 32.9863V32.9863Z" fill="#131922"/>
<path d="M127.703 20.4252V19.2045C127.704 19.1238 127.689 19.0437 127.659 18.9689C127.628 18.8941 127.583 18.8262 127.525 18.7694C127.468 18.7126 127.399 18.6681 127.324 18.6384C127.248 18.6088 127.168 18.5947 127.087 18.597H124.594C124.513 18.5947 124.433 18.6088 124.357 18.6384C124.282 18.6681 124.213 18.7126 124.156 18.7694C124.098 18.8262 124.053 18.8941 124.022 18.9689C123.992 19.0437 123.977 19.1238 123.978 19.2045V23.0409C123.978 24.571 124.023 26.0954 123.978 27.6198C123.982 28.2158 123.792 28.7969 123.436 29.2764C123.081 29.756 122.579 30.1082 122.006 30.2806C121.633 30.378 121.244 30.3958 120.864 30.3326C120.484 30.2695 120.122 30.1269 119.802 29.9143C119.481 29.7017 119.21 29.4238 119.005 29.0991C118.801 28.7744 118.667 28.4102 118.615 28.0305C118.592 27.5939 118.592 27.1564 118.615 26.7198V19.182C118.616 19.1011 118.601 19.0206 118.571 18.9456C118.54 18.8705 118.495 18.8023 118.438 18.745C118.38 18.6878 118.311 18.6427 118.236 18.6124C118.161 18.5822 118.08 18.5673 117.998 18.5689H115.506C115.425 18.5673 115.344 18.5822 115.268 18.6124C115.193 18.6427 115.125 18.6878 115.067 18.745C115.009 18.8023 114.964 18.8705 114.934 18.9456C114.903 19.0206 114.888 19.1011 114.89 19.182V23.0015C114.89 24.526 114.935 26.0504 114.89 27.5748C114.89 28.1873 114.689 28.7829 114.317 29.2712C113.946 29.7596 113.425 30.114 112.833 30.2806C112.456 30.3709 112.065 30.3798 111.685 30.3067C111.304 30.2336 110.944 30.0802 110.629 29.8567C110.313 29.6333 110.05 29.3452 109.855 29.0117C109.661 28.6782 109.541 28.3072 109.504 27.9236C109.481 27.517 109.481 27.1095 109.504 26.7029V19.1651C109.505 19.0842 109.49 19.0038 109.46 18.9287C109.43 18.8536 109.384 18.7854 109.327 18.7282C109.269 18.6709 109.201 18.6258 109.125 18.5955C109.05 18.5653 108.969 18.5505 108.888 18.552H106.35C106.269 18.5505 106.188 18.5653 106.112 18.5955C106.037 18.6258 105.968 18.6709 105.911 18.7282C105.853 18.7854 105.808 18.8536 105.778 18.9287C105.747 19.0038 105.732 19.0842 105.734 19.1651V27.7098C105.744 29.1883 106.269 30.6176 107.219 31.7542C108.169 32.8907 109.486 33.6641 110.945 33.9426C112.064 34.1586 113.222 34.0279 114.264 33.5682C115.306 33.1085 116.181 32.342 116.772 31.3719C117.222 32.1057 117.835 32.7271 118.564 33.1883C119.293 33.6496 120.118 33.9384 120.977 34.0326C122.597 34.1326 124.194 33.618 125.448 32.5925C126.464 31.7369 127.197 30.5958 127.55 29.3187C127.753 28.4184 127.827 27.4943 127.771 26.5735C127.703 24.526 127.703 22.4784 127.703 20.4252Z" fill="#131922"/>
<path d="M40.892 30.6182L33.8394 25.1793L33.9797 26.2311C34.047 26.659 34.0807 27.0915 34.0807 27.5247C34.0799 27.9008 34.0555 28.2766 34.0078 28.6496L39.2257 32.6768C39.7102 33.0212 40.049 33.5344 40.1759 34.1161C40.3028 34.6977 40.2086 35.3059 39.9117 35.8216C39.6149 36.3372 39.1367 36.7233 38.5709 36.9042C38.005 37.0851 37.3922 37.0478 36.8524 36.7996L28.9974 33.543C30.0613 32.9425 30.9467 32.0692 31.5629 31.0126C32.1791 29.9561 32.5039 28.7542 32.5041 27.5303C32.5027 27.0906 32.4614 26.652 32.3807 26.2198L30.5909 12.7209C30.4335 11.5116 29.8426 10.4009 28.9284 9.59625C28.0142 8.79156 26.8392 8.34782 25.6226 8.34782C24.406 8.34782 23.231 8.79156 22.3168 9.59625C21.4026 10.4009 20.8117 11.5116 20.6544 12.7209L19.4818 21.5627L20.3178 20.9159C20.6551 20.6442 21.0135 20.3997 21.3894 20.1847C21.7087 20.0007 22.0384 19.8355 22.3769 19.6897L23.2465 13.1484C23.3039 12.5573 23.5788 12.0088 24.0175 11.6097C24.4562 11.2107 25.0274 10.9896 25.6198 10.9896C26.2122 10.9896 26.7834 11.2107 27.2222 11.6097C27.6609 12.0088 27.9357 12.5573 27.9931 13.1484L29.1153 21.5852C27.8615 20.8475 26.4073 20.5258 24.9603 20.6663C23.5134 20.8067 22.1477 21.4019 21.0584 22.367L10.3364 30.6351C9.36745 31.3756 8.70087 32.4446 8.46139 33.6422C8.22191 34.8398 8.42595 36.0839 9.03533 37.1415C9.64471 38.1992 10.6177 38.9981 11.7721 39.3886C12.9266 39.7791 14.1834 39.7345 15.3074 39.2631L23.527 35.8603L22.5508 35.4553C22.1505 35.2964 21.7624 35.1084 21.3894 34.8929C21.0687 34.7083 20.7613 34.5015 20.4692 34.2742L14.3761 36.7996C13.8362 37.0478 13.2234 37.0851 12.6575 36.9042C12.0917 36.7233 11.6135 36.3372 11.3167 35.8216C11.0198 35.3059 10.9256 34.6977 11.0525 34.1161C11.1794 33.5344 11.5183 33.0212 12.0028 32.6768L18.7356 27.4797C18.7356 27.4797 18.7356 27.5135 18.7356 27.5303C18.7367 28.9386 19.1672 30.3129 19.9695 31.469C20.7717 32.6251 21.9073 33.5077 23.2241 33.9985V33.9985L35.9322 39.2462C37.0557 39.7139 38.3106 39.7557 39.4627 39.364C40.6147 38.9723 41.5853 38.1737 42.1932 37.1174C42.8011 36.0611 43.0049 34.8191 42.7665 33.6232C42.5281 32.4273 41.8638 31.3592 40.8976 30.6182H40.892ZM21.3445 27.5135C21.3456 26.6705 21.596 25.8467 22.064 25.1464C22.532 24.446 23.1966 23.9004 23.9738 23.5786C24.751 23.2568 25.6059 23.1732 26.4305 23.3383C27.2551 23.5034 28.0124 23.9099 28.6066 24.5064C29.2008 25.1029 29.6053 25.8625 29.7689 26.6894C29.9326 27.5163 29.848 28.3732 29.526 29.1519C29.2039 29.9306 28.6588 30.5961 27.9596 31.0644C27.2603 31.5326 26.4383 31.7825 25.5974 31.7825C25.0384 31.7825 24.4849 31.672 23.9686 31.4574C23.4522 31.2428 22.9832 30.9283 22.5882 30.5318C22.1932 30.1353 21.88 29.6646 21.6666 29.1467C21.4532 28.6288 21.3438 28.0738 21.3445 27.5135V27.5135Z" fill="#131922"/>
</svg>
