<svg width="151" height="29" viewBox="0 0 151 29" fill="none" xmlns="http://www.w3.org/2000/svg">
<path d="M27.1887 20.0318L21.2938 15.4857L21.411 16.3648C21.4673 16.7225 21.4955 17.0841 21.4955 17.4461C21.4948 17.7605 21.4744 18.0746 21.4345 18.3864L25.7959 21.7525C26.2008 22.0403 26.484 22.4693 26.5901 22.9555C26.6962 23.4416 26.6174 23.95 26.3693 24.381C26.1212 24.8121 25.7215 25.1347 25.2486 25.2859C24.7756 25.4371 24.2634 25.4059 23.8121 25.1985L17.2466 22.4765C18.1358 21.9746 18.8759 21.2446 19.391 20.3615C19.906 19.4784 20.1775 18.4738 20.1777 17.4508C20.1765 17.0833 20.142 16.7167 20.0745 16.3555L18.5785 5.07248C18.447 4.06165 17.9531 3.13332 17.189 2.46073C16.4248 1.78813 15.4427 1.41724 14.4258 1.41724C13.409 1.41724 12.4268 1.78813 11.6627 2.46073C10.8986 3.13332 10.4047 4.06165 10.2732 5.07248L9.29302 12.4628L9.99178 11.9222C10.2738 11.6951 10.5733 11.4907 10.8875 11.311C11.1544 11.1573 11.43 11.0191 11.7129 10.8973L12.4398 5.42978C12.4878 4.93572 12.7175 4.47725 13.0842 4.14369C13.4509 3.81013 13.9283 3.62535 14.4235 3.62535C14.9187 3.62535 15.3961 3.81013 15.7628 4.14369C16.1295 4.47725 16.3592 4.93572 16.4072 5.42978L17.3451 12.4816C16.2972 11.865 15.0817 11.5962 13.8723 11.7135C12.6628 11.8309 11.5213 12.3284 10.6108 13.1351L1.64892 20.0459C0.839024 20.6649 0.281863 21.5584 0.0816983 22.5594C-0.118466 23.5604 0.0520784 24.6003 0.561424 25.4843C1.07077 26.3684 1.88401 27.0361 2.84895 27.3625C3.8139 27.6889 4.86442 27.6516 5.80394 27.2576L12.6743 24.4134L11.8583 24.0749C11.5237 23.9421 11.1993 23.7849 10.8875 23.6048C10.6195 23.4505 10.3625 23.2777 10.1184 23.0876L5.02545 25.1985C4.57422 25.4059 4.06199 25.4371 3.58903 25.2859C3.11607 25.1347 2.71641 24.8121 2.46829 24.381C2.22016 23.95 2.14142 23.4416 2.24749 22.9555C2.35355 22.4693 2.63678 22.0403 3.04174 21.7525L8.6693 17.4085C8.6693 17.4085 8.6693 17.4367 8.6693 17.4508C8.67026 18.628 9.03013 19.7767 9.70069 20.743C10.3712 21.7093 11.3204 22.447 12.421 22.8573V22.8573L23.043 27.2435C23.9821 27.6344 25.031 27.6694 25.994 27.3419C26.9569 27.0145 27.7681 26.3471 28.2762 25.4641C28.7844 24.5812 28.9547 23.5431 28.7554 22.5435C28.5562 21.5439 28.001 20.6512 27.1934 20.0318H27.1887ZM10.85 17.4367C10.8509 16.7321 11.0602 16.0436 11.4513 15.4582C11.8425 14.8728 12.398 14.4168 13.0476 14.1478C13.6973 13.8788 14.4119 13.8089 15.1011 13.9469C15.7903 14.085 16.4233 14.4247 16.92 14.9233C17.4166 15.4219 17.7547 16.0568 17.8915 16.748C18.0283 17.4391 17.9576 18.1554 17.6884 18.8062C17.4192 19.4571 16.9636 20.0134 16.3791 20.4047C15.7947 20.7961 15.1076 21.005 14.4047 21.005C13.9375 21.005 13.4749 20.9126 13.0433 20.7333C12.6117 20.5539 12.2196 20.291 11.8895 19.9596C11.5593 19.6282 11.2976 19.2348 11.1192 18.8019C10.9409 18.369 10.8494 17.9051 10.85 17.4367V17.4367Z" fill="#1A1F2E"/>
<line opacity="0.2" x1="41.3364" y1="7" x2="41.3364" y2="22" stroke="#1A1F2E"/>
<path d="M61.9747 23.243C61.0511 23.243 60.2086 23.081 59.4471 22.757C58.7017 22.4167 58.0536 21.9387 57.5028 21.323V22.5139C57.5028 22.838 57.3407 23 57.0167 23H54.9752C54.6511 23 54.4891 22.838 54.4891 22.5139V5.50126C54.4891 5.17721 54.6511 5.01519 54.9752 5.01519H57.1625C57.4866 5.01519 57.6486 5.17721 57.6486 5.50126V11.5286C58.1833 10.9615 58.8152 10.5322 59.5443 10.2405C60.2896 9.93266 61.0997 9.77873 61.9747 9.77873C63.1736 9.77873 64.2268 10.0623 65.1341 10.6294C66.0577 11.1803 66.7706 11.9661 67.2729 12.9868C67.7752 13.9914 68.0263 15.1661 68.0263 16.5109C68.0263 17.8557 67.7752 19.0385 67.2729 20.0592C66.7706 21.0638 66.0577 21.8496 65.1341 22.4167C64.2268 22.9676 63.1736 23.243 61.9747 23.243ZM61.2212 20.5696C62.2906 20.5696 63.1493 20.2051 63.7974 19.4759C64.4455 18.7306 64.7696 17.7423 64.7696 16.5109C64.7696 15.2795 64.4455 14.2992 63.7974 13.5701C63.1493 12.8248 62.2906 12.4522 61.2212 12.4522C60.1357 12.4522 59.2607 12.8248 58.5964 13.5701C57.9483 14.2992 57.6243 15.2795 57.6243 16.5109C57.6243 17.7423 57.9483 18.7306 58.5964 19.4759C59.2607 20.2051 60.1357 20.5696 61.2212 20.5696ZM75.3959 23.243C73.4354 23.243 71.9447 22.7489 70.924 21.7605C69.9032 20.7722 69.3928 19.3382 69.3928 17.4587V10.5078C69.3928 10.1838 69.5548 10.0218 69.8789 10.0218H72.0662C72.3903 10.0218 72.5523 10.1838 72.5523 10.5078V17.2157C72.5523 18.3499 72.7872 19.1924 73.2571 19.7433C73.727 20.2942 74.4399 20.5696 75.3959 20.5696C76.3518 20.5696 77.0647 20.2942 77.5346 19.7433C78.0045 19.1924 78.2394 18.3499 78.2394 17.2157V10.5078C78.2394 10.1838 78.4014 10.0218 78.7255 10.0218H80.9128C81.2369 10.0218 81.3989 10.1838 81.3989 10.5078V17.4587C81.3989 19.3382 80.8885 20.7722 79.8678 21.7605C78.847 22.7489 77.3564 23.243 75.3959 23.243ZM88.3758 23.243C87.3874 23.243 86.4396 23.1134 85.5322 22.8542C84.6411 22.5949 83.8472 22.2385 83.1505 21.7848C82.9885 21.6876 82.9074 21.5661 82.9074 21.4203C82.9074 21.323 82.9317 21.2258 82.9804 21.1286L83.7338 19.6461C83.831 19.4516 83.9606 19.3544 84.1226 19.3544C84.1874 19.3544 84.2847 19.3868 84.4143 19.4516C85.8239 20.2942 87.112 20.7154 88.2786 20.7154C88.9267 20.7154 89.429 20.5939 89.7854 20.3509C90.1419 20.0916 90.3201 19.7514 90.3201 19.3301C90.3201 19.0223 90.1986 18.7711 89.9555 18.5767C89.7125 18.3823 89.2993 18.2041 88.716 18.042L87.112 17.6289C85.7834 17.2886 84.8193 16.7944 84.2198 16.1463C83.6204 15.4982 83.3206 14.7043 83.3206 13.7646C83.3206 12.5332 83.7662 11.561 84.6573 10.8481C85.5647 10.1352 86.8041 9.77873 88.3758 9.77873C90.0609 9.77873 91.5434 10.1838 92.8234 10.9939C92.9692 11.0911 93.0421 11.2127 93.0421 11.3585C93.0421 11.4557 93.0178 11.5529 92.9692 11.6501L92.2887 13.0111C92.1915 13.1894 92.07 13.2785 91.9241 13.2785C91.8269 13.2785 91.7216 13.2461 91.6082 13.1813C91.1545 12.9058 90.6522 12.6871 90.1014 12.5251C89.5505 12.3468 88.9996 12.2577 88.4487 12.2577C87.833 12.2577 87.3631 12.3711 87.0391 12.598C86.715 12.8086 86.553 13.1165 86.553 13.5215C86.553 13.8456 86.6826 14.1291 86.9419 14.3722C87.2173 14.599 87.6629 14.7934 88.2786 14.9554L89.834 15.3686C91.114 15.7089 92.0538 16.1868 92.6533 16.8025C93.269 17.402 93.5768 18.1959 93.5768 19.1843C93.5768 20.4643 93.115 21.4608 92.1915 22.1737C91.2841 22.8866 90.0122 23.243 88.3758 23.243ZM95.6607 23C95.3366 23 95.1746 22.838 95.1746 22.5139V10.5078C95.1746 10.1838 95.3366 10.0218 95.6607 10.0218H97.848C98.1721 10.0218 98.3341 10.1838 98.3341 10.5078V22.5139C98.3341 22.838 98.1721 23 97.848 23H95.6607ZM96.7543 8.34481C96.2197 8.34481 95.7903 8.19088 95.4662 7.88304C95.1584 7.55899 95.0045 7.12962 95.0045 6.59494C95.0045 6.06025 95.1584 5.63899 95.4662 5.33114C95.7903 5.00709 96.2197 4.84506 96.7543 4.84506C97.289 4.84506 97.7103 5.00709 98.0181 5.33114C98.3422 5.63899 98.5042 6.06025 98.5042 6.59494C98.5042 7.12962 98.3422 7.55899 98.0181 7.88304C97.7103 8.19088 97.289 8.34481 96.7543 8.34481ZM101.261 23C100.937 23 100.775 22.838 100.775 22.5139V10.5078C100.775 10.1838 100.937 10.0218 101.261 10.0218H103.302C103.626 10.0218 103.788 10.1838 103.788 10.5078V11.8689C104.242 11.1884 104.817 10.6699 105.514 10.3134C106.227 9.95696 107.037 9.77873 107.944 9.77873C109.467 9.77873 110.65 10.2648 111.493 11.237C112.351 12.2091 112.781 13.5539 112.781 15.2714V22.5139C112.781 22.838 112.619 23 112.295 23H110.107C109.783 23 109.621 22.838 109.621 22.5139V15.6116C109.621 14.5909 109.394 13.8294 108.941 13.3271C108.503 12.8086 107.871 12.5494 107.045 12.5494C106.105 12.5494 105.352 12.8572 104.785 13.4729C104.218 14.0724 103.934 14.9473 103.934 16.0977V22.5139C103.934 22.838 103.772 23 103.448 23H101.261ZM120.995 23.243C119.618 23.243 118.41 22.9595 117.373 22.3924C116.336 21.8091 115.534 21.0071 114.967 19.9863C114.416 18.9656 114.141 17.8233 114.141 16.5595C114.141 15.2471 114.425 14.0805 114.992 13.0597C115.559 12.0228 116.345 11.2208 117.349 10.6537C118.37 10.0704 119.52 9.77873 120.8 9.77873C122.048 9.77873 123.142 10.0623 124.081 10.6294C125.037 11.1803 125.774 11.9661 126.293 12.9868C126.811 13.9914 127.071 15.158 127.071 16.4866C127.071 16.7134 127.063 16.8835 127.046 16.997C127.046 17.1428 126.998 17.2562 126.901 17.3372C126.82 17.4182 126.706 17.4587 126.56 17.4587H117.373C117.519 18.4147 117.916 19.1762 118.564 19.7433C119.229 20.2942 120.055 20.5696 121.043 20.5696C122.259 20.5696 123.239 20.1484 123.984 19.3058C124.114 19.16 124.243 19.0871 124.373 19.0871C124.454 19.0871 124.551 19.1276 124.665 19.2086L126.099 20.278C126.244 20.3914 126.317 20.521 126.317 20.6668C126.317 20.7478 126.277 20.8451 126.196 20.9585C124.981 22.4815 123.247 23.243 120.995 23.243ZM123.935 15.1742C123.806 14.283 123.458 13.5944 122.89 13.1084C122.34 12.6061 121.635 12.3549 120.776 12.3549C119.901 12.3549 119.164 12.6061 118.564 13.1084C117.965 13.6106 117.576 14.2992 117.398 15.1742H123.935ZM133.332 23.243C132.344 23.243 131.396 23.1134 130.489 22.8542C129.597 22.5949 128.804 22.2385 128.107 21.7848C127.945 21.6876 127.864 21.5661 127.864 21.4203C127.864 21.323 127.888 21.2258 127.937 21.1286L128.69 19.6461C128.787 19.4516 128.917 19.3544 129.079 19.3544C129.144 19.3544 129.241 19.3868 129.371 19.4516C130.78 20.2942 132.068 20.7154 133.235 20.7154C133.883 20.7154 134.385 20.5939 134.742 20.3509C135.098 20.0916 135.276 19.7514 135.276 19.3301C135.276 19.0223 135.155 18.7711 134.912 18.5767C134.669 18.3823 134.256 18.2041 133.672 18.042L132.068 17.6289C130.74 17.2886 129.776 16.7944 129.176 16.1463C128.577 15.4982 128.277 14.7043 128.277 13.7646C128.277 12.5332 128.723 11.561 129.614 10.8481C130.521 10.1352 131.76 9.77873 133.332 9.77873C135.017 9.77873 136.5 10.1838 137.78 10.9939C137.926 11.0911 137.998 11.2127 137.998 11.3585C137.998 11.4557 137.974 11.5529 137.926 11.6501L137.245 13.0111C137.148 13.1894 137.026 13.2785 136.88 13.2785C136.783 13.2785 136.678 13.2461 136.565 13.1813C136.111 12.9058 135.609 12.6871 135.058 12.5251C134.507 12.3468 133.956 12.2577 133.405 12.2577C132.789 12.2577 132.319 12.3711 131.995 12.598C131.671 12.8086 131.509 13.1165 131.509 13.5215C131.509 13.8456 131.639 14.1291 131.898 14.3722C132.174 14.599 132.619 14.7934 133.235 14.9554L134.79 15.3686C136.07 15.7089 137.01 16.1868 137.61 16.8025C138.225 17.402 138.533 18.1959 138.533 19.1843C138.533 20.4643 138.071 21.4608 137.148 22.1737C136.24 22.8866 134.969 23.243 133.332 23.243ZM144.773 23.243C143.785 23.243 142.837 23.1134 141.929 22.8542C141.038 22.5949 140.244 22.2385 139.548 21.7848C139.386 21.6876 139.305 21.5661 139.305 21.4203C139.305 21.323 139.329 21.2258 139.378 21.1286L140.131 19.6461C140.228 19.4516 140.358 19.3544 140.52 19.3544C140.585 19.3544 140.682 19.3868 140.811 19.4516C142.221 20.2942 143.509 20.7154 144.676 20.7154C145.324 20.7154 145.826 20.5939 146.183 20.3509C146.539 20.0916 146.717 19.7514 146.717 19.3301C146.717 19.0223 146.596 18.7711 146.353 18.5767C146.11 18.3823 145.696 18.2041 145.113 18.042L143.509 17.6289C142.181 17.2886 141.216 16.7944 140.617 16.1463C140.018 15.4982 139.718 14.7043 139.718 13.7646C139.718 12.5332 140.163 11.561 141.054 10.8481C141.962 10.1352 143.201 9.77873 144.773 9.77873C146.458 9.77873 147.941 10.1838 149.221 10.9939C149.366 11.0911 149.439 11.2127 149.439 11.3585C149.439 11.4557 149.415 11.5529 149.366 11.6501L148.686 13.0111C148.589 13.1894 148.467 13.2785 148.321 13.2785C148.224 13.2785 148.119 13.2461 148.005 13.1813C147.552 12.9058 147.049 12.6871 146.499 12.5251C145.948 12.3468 145.397 12.2577 144.846 12.2577C144.23 12.2577 143.76 12.3711 143.436 12.598C143.112 12.8086 142.95 13.1165 142.95 13.5215C142.95 13.8456 143.08 14.1291 143.339 14.3722C143.614 14.599 144.06 14.7934 144.676 14.9554L146.231 15.3686C147.511 15.7089 148.451 16.1868 149.05 16.8025C149.666 17.402 149.974 18.1959 149.974 19.1843C149.974 20.4643 149.512 21.4608 148.589 22.1737C147.681 22.8866 146.409 23.243 144.773 23.243Z" fill="#1A1F2E"/>
</svg>
