<svg width="289" height="29" viewBox="0 0 289 29" fill="none" xmlns="http://www.w3.org/2000/svg">
<path d="M27.1887 20.0318L21.2938 15.4857L21.411 16.3649C21.4673 16.7225 21.4955 17.0841 21.4955 17.4461C21.4948 17.7605 21.4744 18.0746 21.4345 18.3864L25.7959 21.7525C26.2008 22.0403 26.484 22.4693 26.5901 22.9555C26.6962 23.4416 26.6174 23.95 26.3693 24.381C26.1212 24.8121 25.7215 25.1347 25.2486 25.2859C24.7756 25.4371 24.2634 25.4059 23.8121 25.1985L17.2466 22.4765C18.1358 21.9746 18.8759 21.2446 19.391 20.3615C19.906 19.4784 20.1775 18.4738 20.1777 17.4508C20.1765 17.0833 20.142 16.7167 20.0745 16.3555L18.5785 5.07248C18.447 4.06165 17.9531 3.13332 17.189 2.46073C16.4248 1.78813 15.4427 1.41724 14.4258 1.41724C13.409 1.41724 12.4268 1.78813 11.6627 2.46073C10.8986 3.13332 10.4047 4.06165 10.2732 5.07248L9.29302 12.4628L9.99178 11.9222C10.2738 11.6951 10.5733 11.4907 10.8875 11.311C11.1544 11.1573 11.43 11.0191 11.7129 10.8973L12.4398 5.42978C12.4878 4.93572 12.7175 4.47725 13.0842 4.14369C13.4509 3.81013 13.9283 3.62535 14.4235 3.62535C14.9187 3.62535 15.3961 3.81013 15.7628 4.14369C16.1295 4.47725 16.3592 4.93572 16.4072 5.42978L17.3451 12.4816C16.2972 11.865 15.0817 11.5962 13.8723 11.7135C12.6628 11.8309 11.5213 12.3284 10.6108 13.1351L1.64892 20.0459C0.839024 20.6649 0.281863 21.5584 0.0816983 22.5594C-0.118466 23.5604 0.0520784 24.6003 0.561424 25.4843C1.07077 26.3684 1.88401 27.0361 2.84895 27.3625C3.8139 27.6889 4.86442 27.6516 5.80394 27.2576L12.6743 24.4134L11.8583 24.0749C11.5237 23.9421 11.1993 23.7849 10.8875 23.6048C10.6195 23.4505 10.3625 23.2777 10.1184 23.0876L5.02545 25.1985C4.57422 25.4059 4.06199 25.4371 3.58903 25.2859C3.11607 25.1347 2.71641 24.8121 2.46829 24.381C2.22016 23.95 2.14142 23.4416 2.24749 22.9555C2.35355 22.4693 2.63678 22.0403 3.04174 21.7525L8.6693 17.4085C8.6693 17.4085 8.6693 17.4367 8.6693 17.4508C8.67026 18.628 9.03013 19.7767 9.70069 20.743C10.3712 21.7093 11.3204 22.447 12.421 22.8573L23.043 27.2435C23.9821 27.6344 25.031 27.6694 25.994 27.3419C26.9569 27.0145 27.7681 26.3471 28.2762 25.4641C28.7844 24.5812 28.9547 23.5431 28.7554 22.5435C28.5562 21.5439 28.001 20.6512 27.1934 20.0318H27.1887ZM10.85 17.4367C10.8509 16.7321 11.0602 16.0436 11.4513 15.4582C11.8425 14.8728 12.398 14.4168 13.0476 14.1478C13.6973 13.8788 14.4119 13.8089 15.1011 13.9469C15.7903 14.085 16.4233 14.4247 16.92 14.9233C17.4166 15.4219 17.7547 16.0568 17.8915 16.748C18.0283 17.4391 17.9576 18.1554 17.6884 18.8062C17.4192 19.4571 16.9636 20.0134 16.3791 20.4047C15.7947 20.7961 15.1076 21.005 14.4047 21.005C13.9375 21.005 13.4749 20.9126 13.0433 20.7333C12.6117 20.5539 12.2196 20.291 11.8895 19.9596C11.5593 19.6282 11.2976 19.2348 11.1192 18.8019C10.9409 18.369 10.8494 17.9051 10.85 17.4367Z" fill="white"/>
<path d="M35.4891 9.43848C35.4891 7.96405 35.886 6.82177 36.68 6.01164C37.4901 5.18531 38.6486 4.77215 40.1554 4.77215C41.1114 4.77215 41.9377 4.95038 42.6344 5.30683C42.8288 5.40405 42.926 5.54177 42.926 5.72C42.926 5.76861 42.9098 5.84152 42.8774 5.93873L42.2941 7.49418C42.2293 7.68861 42.1159 7.78582 41.9539 7.78582C41.8567 7.78582 41.7595 7.76152 41.6622 7.71291C41.2734 7.53468 40.8764 7.44557 40.4714 7.44557C39.8719 7.44557 39.402 7.6319 39.0617 8.00456C38.7215 8.36101 38.5514 8.88759 38.5514 9.5843V10.0218H41.7595C42.0835 10.0218 42.2455 10.1838 42.2455 10.5078V12.1119C42.2455 12.4359 42.0835 12.598 41.7595 12.598H38.6486V22.5139C38.6486 22.838 38.4866 23 38.1625 23H35.9752C35.6511 23 35.4891 22.838 35.4891 22.5139V9.43848ZM48.5465 23.243C47.3475 23.243 46.2862 22.9676 45.3627 22.4167C44.4554 21.8496 43.7505 21.0638 43.2483 20.0592C42.746 19.0385 42.4948 17.8557 42.4948 16.5109C42.4948 15.1661 42.746 13.9914 43.2483 12.9868C43.7505 11.9661 44.4554 11.1803 45.3627 10.6294C46.2862 10.0623 47.3475 9.77873 48.5465 9.77873C49.4214 9.77873 50.2235 9.93266 50.9526 10.2405C51.6979 10.5322 52.3379 10.9615 52.8726 11.5286V10.5078C52.8726 10.1838 53.0346 10.0218 53.3586 10.0218H55.546C55.87 10.0218 56.0321 10.1838 56.0321 10.5078V22.5139C56.0321 22.838 55.87 23 55.546 23H53.5045C53.1804 23 53.0184 22.838 53.0184 22.5139V21.323C52.4675 21.9387 51.8113 22.4167 51.0498 22.757C50.3045 23.081 49.47 23.243 48.5465 23.243ZM49.2999 20.5696C50.3855 20.5696 51.2523 20.2051 51.9004 19.4759C52.5647 18.7306 52.8969 17.7423 52.8969 16.5109C52.8969 15.2795 52.5647 14.2992 51.9004 13.5701C51.2523 12.8248 50.3855 12.4522 49.2999 12.4522C48.2305 12.4522 47.3718 12.8248 46.7237 13.5701C46.0756 14.2992 45.7516 15.2795 45.7516 16.5109C45.7516 17.7423 46.0756 18.7306 46.7237 19.4759C47.3718 20.2051 48.2305 20.5696 49.2999 20.5696ZM63.11 23.243C62.1216 23.243 61.1738 23.1134 60.2664 22.8542C59.3753 22.5949 58.5814 22.2385 57.8847 21.7848C57.7226 21.6876 57.6416 21.5661 57.6416 21.4203C57.6416 21.323 57.6659 21.2258 57.7145 21.1286L58.4679 19.6461C58.5652 19.4516 58.6948 19.3544 58.8568 19.3544C58.9216 19.3544 59.0188 19.3868 59.1485 19.4516C60.5581 20.2942 61.8462 20.7154 63.0128 20.7154C63.6609 20.7154 64.1631 20.5939 64.5196 20.3509C64.876 20.0916 65.0543 19.7514 65.0543 19.3301C65.0543 19.0223 64.9328 18.7711 64.6897 18.5767C64.4467 18.3823 64.0335 18.2041 63.4502 18.042L61.8462 17.6289C60.5176 17.2886 59.5535 16.7944 58.954 16.1463C58.3545 15.4982 58.0548 14.7043 58.0548 13.7646C58.0548 12.5332 58.5004 11.561 59.3915 10.8481C60.2988 10.1352 61.5383 9.77873 63.11 9.77873C64.795 9.77873 66.2776 10.1838 67.5576 10.9939C67.7034 11.0911 67.7763 11.2127 67.7763 11.3585C67.7763 11.4557 67.752 11.5529 67.7034 11.6501L67.0229 13.0111C66.9257 13.1894 66.8041 13.2785 66.6583 13.2785C66.5611 13.2785 66.4558 13.2461 66.3424 13.1813C65.8887 12.9058 65.3864 12.6871 64.8355 12.5251C64.2847 12.3468 63.7338 12.2577 63.1829 12.2577C62.5672 12.2577 62.0973 12.3711 61.7733 12.598C61.4492 12.8086 61.2872 13.1165 61.2872 13.5215C61.2872 13.8456 61.4168 14.1291 61.676 14.3722C61.9515 14.599 62.3971 14.7934 63.0128 14.9554L64.5682 15.3686C65.8482 15.7089 66.7879 16.1868 67.3874 16.8025C68.0031 17.402 68.311 18.1959 68.311 19.1843C68.311 20.4643 67.8492 21.4608 66.9257 22.1737C66.0183 22.8866 64.7464 23.243 63.11 23.243ZM74.2835 23.243C72.8414 23.243 71.7154 22.8461 70.9052 22.0522C70.1113 21.2582 69.7143 20.1484 69.7143 18.7225V7.49418C69.7143 7.17012 69.8764 7.0081 70.2004 7.0081H72.3878C72.7118 7.0081 72.8738 7.17012 72.8738 7.49418V10.0218H76.2278C76.5518 10.0218 76.7138 10.1838 76.7138 10.5078V12.1119C76.7138 12.4359 76.5518 12.598 76.2278 12.598H72.8738V18.5767C72.8738 19.1924 73.0359 19.6623 73.3599 19.9863C73.684 20.3104 74.1376 20.4724 74.7209 20.4724C75.288 20.4724 75.766 20.3833 76.1548 20.2051C76.2845 20.1565 76.3817 20.1322 76.4465 20.1322C76.6085 20.1322 76.7219 20.2294 76.7867 20.4238L77.3457 22.0278L77.3943 22.2709C77.3943 22.4329 77.3214 22.5544 77.1756 22.6354C76.4303 23.0405 75.4662 23.243 74.2835 23.243ZM83.6002 23.243C82.0123 23.243 80.7647 22.7894 79.8574 21.882C78.9662 20.9585 78.5207 19.6785 78.5207 18.042V10.5078C78.5207 10.1838 78.6827 10.0218 79.0067 10.0218H81.1941C81.5181 10.0218 81.6802 10.1838 81.6802 10.5078V17.799C81.6802 18.6739 81.8827 19.3382 82.2878 19.7919C82.6928 20.2456 83.2599 20.4724 83.989 20.4724C84.7991 20.4724 85.4392 20.2051 85.909 19.6704C86.3951 19.1357 86.6381 18.3661 86.6381 17.3615V10.5078C86.6381 10.1838 86.8002 10.0218 87.1242 10.0218H89.3116C89.6356 10.0218 89.7976 10.1838 89.7976 10.5078V17.3615C89.7976 18.3661 90.0326 19.1357 90.5024 19.6704C90.9885 20.2051 91.6366 20.4724 92.4467 20.4724C93.1759 20.4724 93.7429 20.2456 94.148 19.7919C94.5531 19.3382 94.7556 18.6739 94.7556 17.799V10.5078C94.7556 10.1838 94.9176 10.0218 95.2417 10.0218H97.429C97.7531 10.0218 97.9151 10.1838 97.9151 10.5078V18.042C97.9151 19.6785 97.4695 20.9585 96.5784 21.882C95.6873 22.7894 94.4478 23.243 92.8599 23.243C91.8229 23.243 90.9075 23.0405 90.1136 22.6354C89.3359 22.2142 88.704 21.6066 88.2179 20.8127C87.2133 22.4329 85.6741 23.243 83.6002 23.243ZM106.197 23.243C104.885 23.243 103.702 22.9595 102.649 22.3924C101.596 21.8091 100.77 21.0071 100.17 19.9863C99.5705 18.9494 99.2708 17.7909 99.2708 16.5109C99.2708 15.2309 99.5705 14.0805 100.17 13.0597C100.77 12.0228 101.596 11.2208 102.649 10.6537C103.702 10.0704 104.885 9.77873 106.197 9.77873C107.526 9.77873 108.717 10.0704 109.77 10.6537C110.839 11.2208 111.674 12.0228 112.273 13.0597C112.873 14.0805 113.173 15.2309 113.173 16.5109C113.173 17.7909 112.873 18.9494 112.273 19.9863C111.674 21.0071 110.839 21.8091 109.77 22.3924C108.717 22.9595 107.526 23.243 106.197 23.243ZM106.197 20.5696C107.315 20.5696 108.215 20.2051 108.895 19.4759C109.576 18.7306 109.916 17.7423 109.916 16.5109C109.916 15.2795 109.576 14.2992 108.895 13.5701C108.215 12.8248 107.315 12.4522 106.197 12.4522C105.096 12.4522 104.204 12.8248 103.524 13.5701C102.86 14.2992 102.528 15.2795 102.528 16.5109C102.528 17.7423 102.86 18.7306 103.524 19.4759C104.204 20.2051 105.096 20.5696 106.197 20.5696ZM115.111 23C114.787 23 114.625 22.838 114.625 22.5139V10.5078C114.625 10.1838 114.787 10.0218 115.111 10.0218H117.152C117.476 10.0218 117.638 10.1838 117.638 10.5078V12.3792C118.465 10.7752 119.834 9.91645 121.746 9.80304H121.818C122.11 9.80304 122.256 9.95696 122.256 10.2648V12.3549C122.256 12.679 122.094 12.841 121.77 12.841C120.376 12.9058 119.364 13.2461 118.732 13.8618C118.1 14.4613 117.784 15.4091 117.784 16.7053V22.5139C117.784 22.838 117.622 23 117.298 23H115.111ZM124.059 23C123.735 23 123.573 22.838 123.573 22.5139V5.50126C123.573 5.17721 123.735 5.01519 124.059 5.01519H126.247C126.571 5.01519 126.733 5.17721 126.733 5.50126V15.4172L131.521 10.2891C131.699 10.1109 131.901 10.0218 132.128 10.0218H134.656C134.785 10.0218 134.883 10.0461 134.947 10.0947C135.028 10.1433 135.069 10.2081 135.069 10.2891C135.069 10.3701 135.012 10.4835 134.899 10.6294L130.33 15.3929L135.385 22.4167C135.466 22.5301 135.506 22.6273 135.506 22.7084C135.506 22.7894 135.466 22.8623 135.385 22.9271C135.32 22.9757 135.223 23 135.093 23H132.468C132.242 23 132.047 22.8947 131.885 22.6841L128.191 17.4101L126.733 18.917V22.5139C126.733 22.838 126.571 23 126.247 23H124.059Z" fill="white"/>
<path d="M144.072 8.73367C144.072 7.53468 144.413 6.58683 145.093 5.89012C145.774 5.19342 146.697 4.84506 147.864 4.84506C148.723 4.84506 149.435 5.02329 150.003 5.37975C150.181 5.50937 150.27 5.63899 150.27 5.76861C150.27 5.84962 150.246 5.93873 150.197 6.03595L150.003 6.44911C149.905 6.64354 149.784 6.74076 149.638 6.74076C149.606 6.74076 149.508 6.70835 149.346 6.64354C148.925 6.41671 148.463 6.30329 147.961 6.30329C147.264 6.30329 146.721 6.51392 146.333 6.93519C145.96 7.35645 145.774 7.98025 145.774 8.80658V10.2162H149.079C149.403 10.2162 149.565 10.3782 149.565 10.7023V11.237C149.565 11.561 149.403 11.723 149.079 11.723H145.822V22.5139C145.822 22.838 145.66 23 145.336 23H144.558C144.234 23 144.072 22.838 144.072 22.5139V8.73367ZM156.705 23.1458C155.474 23.1458 154.372 22.8704 153.4 22.3195C152.428 21.7524 151.666 20.9747 151.116 19.9863C150.565 18.998 150.289 17.8719 150.289 16.6081C150.289 15.3443 150.565 14.2182 151.116 13.2299C151.666 12.2253 152.428 11.4476 153.4 10.8967C154.372 10.3458 155.474 10.0704 156.705 10.0704C157.937 10.0704 159.039 10.3458 160.011 10.8967C160.983 11.4476 161.744 12.2253 162.295 13.2299C162.846 14.2182 163.122 15.3443 163.122 16.6081C163.122 17.8719 162.846 18.998 162.295 19.9863C161.744 20.9747 160.983 21.7524 160.011 22.3195C159.039 22.8704 157.937 23.1458 156.705 23.1458ZM156.705 21.639C158.099 21.639 159.217 21.1853 160.059 20.278C160.902 19.3544 161.323 18.1311 161.323 16.6081C161.323 15.0851 160.902 13.8699 160.059 12.9625C159.217 12.039 158.099 11.5772 156.705 11.5772C155.312 11.5772 154.194 12.039 153.351 12.9625C152.509 13.8699 152.088 15.0851 152.088 16.6081C152.088 18.1311 152.509 19.3544 153.351 20.278C154.194 21.1853 155.312 21.639 156.705 21.639ZM165.992 23C165.668 23 165.506 22.838 165.506 22.5139V10.7023C165.506 10.3782 165.668 10.2162 165.992 10.2162H166.77C167.094 10.2162 167.256 10.3782 167.256 10.7023V12.4522C167.629 11.7554 168.172 11.2127 168.884 10.8238C169.614 10.4187 170.472 10.1919 171.461 10.1433H171.534C171.825 10.1433 171.971 10.2972 171.971 10.6051V11.3099C171.971 11.6177 171.809 11.7878 171.485 11.8203C170.075 11.9013 169.014 12.3225 168.301 13.084C167.604 13.8294 167.256 14.9635 167.256 16.4866V22.5139C167.256 22.838 167.094 23 166.77 23H165.992ZM184.807 23.1458C183.592 23.1458 182.506 22.8704 181.551 22.3195C180.595 21.7524 179.841 20.9747 179.29 19.9863C178.756 18.9818 178.488 17.8557 178.488 16.6081C178.488 15.3443 178.748 14.2182 179.266 13.2299C179.801 12.2415 180.53 11.4719 181.453 10.921C182.393 10.3539 183.446 10.0704 184.613 10.0704C185.779 10.0704 186.816 10.3458 187.724 10.8967C188.647 11.4476 189.36 12.2172 189.862 13.2056C190.381 14.1939 190.64 15.3281 190.64 16.6081V16.6567C190.624 16.8025 190.567 16.9241 190.47 17.0213C190.389 17.1023 190.276 17.1428 190.13 17.1428H180.214C180.311 18.4876 180.789 19.5732 181.648 20.3995C182.523 21.2258 183.592 21.639 184.856 21.639C185.52 21.639 186.176 21.5256 186.824 21.2987C187.473 21.0719 188.04 20.7316 188.526 20.278C188.639 20.1646 188.753 20.1078 188.866 20.1078C188.963 20.1078 189.077 20.1727 189.206 20.3023L189.546 20.6911C189.644 20.8046 189.692 20.918 189.692 21.0314C189.692 21.1448 189.644 21.2501 189.546 21.3473C188.996 21.9306 188.291 22.3762 187.432 22.6841C186.59 22.9919 185.715 23.1458 184.807 23.1458ZM188.963 15.6846C188.834 14.4532 188.372 13.4648 187.578 12.7195C186.784 11.958 185.796 11.5772 184.613 11.5772C183.446 11.5772 182.458 11.958 181.648 12.7195C180.838 13.481 180.368 14.4694 180.238 15.6846H188.963ZM193.456 23C193.132 23 192.97 22.838 192.97 22.5139V10.7023C192.97 10.3782 193.132 10.2162 193.456 10.2162H194.233C194.557 10.2162 194.719 10.3782 194.719 10.7023V12.2577C195.108 11.5772 195.667 11.0506 196.396 10.678C197.125 10.3053 197.96 10.119 198.9 10.119C200.342 10.119 201.484 10.5484 202.326 11.4071C203.185 12.2496 203.615 13.4891 203.615 15.1256V22.5139C203.615 22.838 203.453 23 203.129 23H202.351C202.027 23 201.865 22.838 201.865 22.5139V15.2957C201.865 14.1129 201.581 13.2137 201.014 12.598C200.447 11.9823 199.629 11.6744 198.559 11.6744C197.377 11.6744 196.437 12.0471 195.74 12.7924C195.06 13.5215 194.719 14.5342 194.719 15.8304V22.5139C194.719 22.838 194.557 23 194.233 23H193.456ZM210.618 23.0972C209.468 23.0972 208.56 22.7732 207.896 22.1251C207.248 21.4608 206.924 20.5453 206.924 19.3787V7.90734C206.924 7.58329 207.086 7.42126 207.41 7.42126H208.188C208.512 7.42126 208.674 7.58329 208.674 7.90734V10.2162H212.076C212.4 10.2162 212.562 10.3782 212.562 10.7023V11.237C212.562 11.561 212.4 11.723 212.076 11.723H208.674V19.2815C208.674 20.0268 208.852 20.602 209.208 21.0071C209.581 21.3959 210.116 21.5904 210.813 21.5904C211.347 21.5904 211.858 21.4689 212.344 21.2258C212.506 21.161 212.603 21.1286 212.635 21.1286C212.781 21.1286 212.895 21.2339 212.976 21.4446L213.121 21.882C213.154 22.0116 213.17 22.1089 213.17 22.1737C213.17 22.3195 213.113 22.4248 213 22.4896C212.336 22.8947 211.542 23.0972 210.618 23.0972ZM220.055 23.1458C218.84 23.1458 217.755 22.8704 216.799 22.3195C215.843 21.7524 215.089 20.9747 214.538 19.9863C214.004 18.9818 213.736 17.8557 213.736 16.6081C213.736 15.3443 213.996 14.2182 214.514 13.2299C215.049 12.2415 215.778 11.4719 216.701 10.921C217.641 10.3539 218.694 10.0704 219.861 10.0704C221.028 10.0704 222.064 10.3458 222.972 10.8967C223.895 11.4476 224.608 12.2172 225.111 13.2056C225.629 14.1939 225.888 15.3281 225.888 16.6081V16.6567C225.872 16.8025 225.815 16.9241 225.718 17.0213C225.637 17.1023 225.524 17.1428 225.378 17.1428H215.462C215.559 18.4876 216.037 19.5732 216.896 20.3995C217.771 21.2258 218.84 21.639 220.104 21.639C220.768 21.639 221.424 21.5256 222.073 21.2987C222.721 21.0719 223.288 20.7316 223.774 20.278C223.887 20.1646 224.001 20.1078 224.114 20.1078C224.211 20.1078 224.325 20.1727 224.454 20.3023L224.795 20.6911C224.892 20.8046 224.94 20.918 224.94 21.0314C224.94 21.1448 224.892 21.2501 224.795 21.3473C224.244 21.9306 223.539 22.3762 222.68 22.6841C221.838 22.9919 220.963 23.1458 220.055 23.1458ZM224.211 15.6846C224.082 14.4532 223.62 13.4648 222.826 12.7195C222.032 11.958 221.044 11.5772 219.861 11.5772C218.694 11.5772 217.706 11.958 216.896 12.7195C216.086 13.481 215.616 14.4694 215.486 15.6846H224.211ZM228.704 23C228.38 23 228.218 22.838 228.218 22.5139V10.7023C228.218 10.3782 228.38 10.2162 228.704 10.2162H229.481C229.805 10.2162 229.968 10.3782 229.968 10.7023V12.4522C230.34 11.7554 230.883 11.2127 231.596 10.8238C232.325 10.4187 233.184 10.1919 234.172 10.1433H234.245C234.537 10.1433 234.682 10.2972 234.682 10.6051V11.3099C234.682 11.6177 234.52 11.7878 234.196 11.8203C232.787 11.9013 231.725 12.3225 231.013 13.084C230.316 13.8294 229.968 14.9635 229.968 16.4866V22.5139C229.968 22.838 229.805 23 229.481 23H228.704ZM237.415 27.3747C237.091 27.3747 236.929 27.2127 236.929 26.8886V10.7023C236.929 10.3782 237.091 10.2162 237.415 10.2162H238.193C238.517 10.2162 238.679 10.3782 238.679 10.7023V12.5008C239.181 11.7068 239.821 11.1073 240.599 10.7023C241.393 10.281 242.276 10.0704 243.248 10.0704C244.382 10.0704 245.403 10.3458 246.31 10.8967C247.218 11.4476 247.931 12.2172 248.449 13.2056C248.968 14.1939 249.227 15.3281 249.227 16.6081C249.227 17.8881 248.968 19.0223 248.449 20.0106C247.931 20.999 247.218 21.7686 246.31 22.3195C245.403 22.8704 244.382 23.1458 243.248 23.1458C242.276 23.1458 241.393 22.9352 240.599 22.5139C239.805 22.0927 239.165 21.4851 238.679 20.6911V26.8886C238.679 27.2127 238.517 27.3747 238.193 27.3747H237.415ZM243.151 21.639C243.993 21.639 244.739 21.4284 245.387 21.0071C246.035 20.5858 246.537 19.9944 246.894 19.2329C247.25 18.4714 247.428 17.5965 247.428 16.6081C247.428 15.6197 247.25 14.7448 246.894 13.9833C246.537 13.2218 246.035 12.6304 245.387 12.2091C244.739 11.7878 243.993 11.5772 243.151 11.5772C242.308 11.5772 241.547 11.7878 240.866 12.2091C240.186 12.6304 239.643 13.2218 239.238 13.9833C238.849 14.7448 238.655 15.6197 238.655 16.6081C238.655 17.5965 238.849 18.4714 239.238 19.2329C239.643 19.9944 240.186 20.5858 240.866 21.0071C241.547 21.4284 242.308 21.639 243.151 21.639ZM252.084 23C251.76 23 251.598 22.838 251.598 22.5139V10.7023C251.598 10.3782 251.76 10.2162 252.084 10.2162H252.861C253.186 10.2162 253.348 10.3782 253.348 10.7023V12.4522C253.72 11.7554 254.263 11.2127 254.976 10.8238C255.705 10.4187 256.564 10.1919 257.552 10.1433H257.625C257.917 10.1433 258.063 10.2972 258.063 10.6051V11.3099C258.063 11.6177 257.9 11.7878 257.576 11.8203C256.167 11.9013 255.106 12.3225 254.393 13.084C253.696 13.8294 253.348 14.9635 253.348 16.4866V22.5139C253.348 22.838 253.186 23 252.861 23H252.084ZM260.844 23C260.52 23 260.358 22.838 260.358 22.5139V10.7023C260.358 10.3782 260.52 10.2162 260.844 10.2162H261.621C261.946 10.2162 262.108 10.3782 262.108 10.7023V22.5139C262.108 22.838 261.946 23 261.621 23H260.844ZM261.233 7.83443C260.892 7.83443 260.601 7.72101 260.358 7.49418C260.131 7.25114 260.017 6.95949 260.017 6.61924C260.017 6.27899 260.131 5.99544 260.358 5.76861C260.601 5.52557 260.892 5.40405 261.233 5.40405C261.573 5.40405 261.856 5.52557 262.083 5.76861C262.326 5.99544 262.448 6.27899 262.448 6.61924C262.448 6.95949 262.326 7.25114 262.083 7.49418C261.856 7.72101 261.573 7.83443 261.233 7.83443ZM269.49 23.1458C268.615 23.1458 267.748 23.0243 266.89 22.7813C266.047 22.5382 265.318 22.2142 264.702 21.8091C264.557 21.7119 264.484 21.5823 264.484 21.4203C264.484 21.3392 264.508 21.2501 264.557 21.1529L264.873 20.6182C264.97 20.44 265.091 20.3509 265.237 20.3509C265.318 20.3509 265.415 20.3914 265.529 20.4724C266.096 20.8289 266.736 21.1124 267.449 21.323C268.162 21.5337 268.858 21.639 269.539 21.639C270.43 21.639 271.11 21.4527 271.58 21.08C272.05 20.7073 272.285 20.1889 272.285 19.5246C272.285 18.9737 272.099 18.5443 271.726 18.2365C271.354 17.9124 270.705 17.6289 269.782 17.3858L268.397 17.0213C267.295 16.7296 266.412 16.3246 265.747 15.8061C265.083 15.2876 264.751 14.518 264.751 13.4972C264.751 12.4278 265.14 11.5934 265.918 10.9939C266.711 10.3782 267.773 10.0704 269.101 10.0704C269.83 10.0704 270.551 10.1676 271.264 10.362C271.977 10.5403 272.625 10.7833 273.209 11.0911C273.387 11.1884 273.476 11.318 273.476 11.48C273.476 11.561 273.452 11.6501 273.403 11.7473L273.136 12.2577C273.039 12.4359 272.901 12.5251 272.723 12.5251C272.642 12.5251 272.553 12.5008 272.455 12.4522C271.386 11.8689 270.3 11.5772 269.199 11.5772C268.307 11.5772 267.635 11.7473 267.181 12.0876C266.728 12.4116 266.501 12.8572 266.501 13.4243C266.501 13.9914 266.703 14.4208 267.108 14.7124C267.514 14.9878 268.105 15.2309 268.883 15.4415L270.292 15.8304C271.556 16.1706 272.496 16.6162 273.111 17.1671C273.727 17.7018 274.035 18.4714 274.035 19.4759C274.035 20.6587 273.622 21.5661 272.796 22.198C271.985 22.8299 270.884 23.1458 269.49 23.1458ZM281.628 23.1458C280.412 23.1458 279.327 22.8704 278.371 22.3195C277.415 21.7524 276.661 20.9747 276.111 19.9863C275.576 18.9818 275.309 17.8557 275.309 16.6081C275.309 15.3443 275.568 14.2182 276.086 13.2299C276.621 12.2415 277.35 11.4719 278.274 10.921C279.213 10.3539 280.267 10.0704 281.433 10.0704C282.6 10.0704 283.637 10.3458 284.544 10.8967C285.468 11.4476 286.18 12.2172 286.683 13.2056C287.201 14.1939 287.46 15.3281 287.46 16.6081V16.6567C287.444 16.8025 287.388 16.9241 287.29 17.0213C287.209 17.1023 287.096 17.1428 286.95 17.1428H277.034C277.131 18.4876 277.609 19.5732 278.468 20.3995C279.343 21.2258 280.412 21.639 281.676 21.639C282.34 21.639 282.997 21.5256 283.645 21.2987C284.293 21.0719 284.86 20.7316 285.346 20.278C285.459 20.1646 285.573 20.1078 285.686 20.1078C285.783 20.1078 285.897 20.1727 286.027 20.3023L286.367 20.6911C286.464 20.8046 286.513 20.918 286.513 21.0314C286.513 21.1448 286.464 21.2501 286.367 21.3473C285.816 21.9306 285.111 22.3762 284.252 22.6841C283.41 22.9919 282.535 23.1458 281.628 23.1458ZM285.783 15.6846C285.654 14.4532 285.192 13.4648 284.398 12.7195C283.604 11.958 282.616 11.5772 281.433 11.5772C280.267 11.5772 279.278 11.958 278.468 12.7195C277.658 13.481 277.188 14.4694 277.058 15.6846H285.783Z" fill="white"/>
</svg>
